<?xml version="1.0" standalone="no"?>
<!DOCTYPE svg PUBLIC "-//W3C//DTD SVG 20010904//EN"
 "http://www.w3.org/TR/2001/REC-SVG-20010904/DTD/svg10.dtd">
<svg version="1.0" xmlns="http://www.w3.org/2000/svg"
 width="500.000000pt" height="500.000000pt" viewBox="0 0 500.000000 500.000000"
 preserveAspectRatio="xMidYMid meet">

<g transform="translate(0.000000,500.000000) scale(0.100000,-0.100000)"
fill="#000000" stroke="none">
<path d="M2867 3262 c-38 -39 -74 -132 -117 -298 -8 -33 -16 -43 -35 -46 -24
-5 -25 -4 -27 61 l-2 66 -3 -65 c-6 -105 -23 -97 -23 11 0 91 -1 96 -24 109
-42 22 -113 -20 -131 -78 -7 -23 -7 -23 -39 10 -79 80 -359 227 -464 244 -85
13 -129 -24 -98 -83 11 -22 12 -33 4 -41 -8 -8 -8 -27 1 -68 14 -74 15 -71
-14 -78 -14 -4 -25 -13 -25 -21 0 -22 -7 -19 -68 34 -78 66 -171 127 -251 164
-91 42 -212 50 -253 17 -38 -30 -36 -62 8 -106 35 -34 37 -41 46 -126 7 -76 6
-93 -7 -108 -21 -24 -19 -66 6 -83 17 -13 21 -30 27 -127 7 -111 7 -112 -15
-121 -18 -7 -23 -16 -23 -43 0 -54 16 -60 117 -45 56 9 155 13 273 11 125 -2
194 1 213 9 38 16 51 52 33 88 -19 37 -152 162 -221 207 -30 20 -54 38 -52 40
1 1 35 -1 76 -6 102 -13 141 8 141 76 0 24 14 32 24 15 9 -13 56 -311 56 -351
0 -24 8 -44 25 -63 30 -32 36 -33 65 -9 19 15 21 27 21 102 0 47 -3 136 -7
199 l-7 114 24 -6 c13 -4 36 -7 50 -7 32 0 48 -28 139 -242 l68 -163 49 0 48
0 3 40 c2 22 -2 58 -8 80 -14 47 -93 207 -122 248 -11 15 -18 31 -15 33 3 3
41 2 84 -3 l78 -8 2 -55 c5 -108 23 -252 35 -273 21 -40 51 -57 95 -55 27 1
49 -4 60 -14 10 -9 25 -17 33 -18 57 -8 85 19 94 91 11 90 38 219 46 219 4 0
1 -23 -6 -52 -19 -73 -30 -183 -17 -175 6 4 13 32 16 64 3 32 12 81 18 110 12
51 13 52 55 59 48 7 64 1 64 -25 0 -36 61 -223 85 -262 27 -42 62 -52 85 -24
9 11 17 12 30 5 31 -17 54 -11 88 20 l33 29 -7 241 c-4 142 -3 240 2 240 15 0
228 -390 240 -439 13 -57 31 -91 47 -92 33 -3 54 4 75 27 17 20 22 37 22 83 0
84 -19 312 -35 416 -30 201 -38 235 -52 235 -15 0 -14 -10 13 -143 8 -38 14
-78 13 -90 -1 -12 -5 -2 -10 23 -34 176 -51 231 -75 242 -18 9 -29 7 -49 -6
-14 -10 -29 -24 -32 -32 -3 -9 8 -88 26 -177 17 -89 31 -173 31 -186 0 -15
-19 14 -53 80 -69 136 -150 261 -193 299 -44 38 -76 39 -103 1 -19 -26 -21
-45 -23 -178 l-2 -148 -6 140 -6 140 -2 -132 c-2 -128 -3 -131 -23 -126 -26 7
-26 7 -35 128 -7 87 -9 94 -15 55 l-6 -45 -2 50 c-4 104 -13 126 -61 161 -56
41 -88 42 -123 6z m-680 -191 c45 -22 99 -51 120 -66 l38 -26 -60 7 c-33 4
-67 12 -75 20 -31 26 -66 33 -89 18 -27 -20 -37 -12 -46 33 -4 20 -14 43 -23
51 -32 26 49 4 135 -37z m-612 -37 c28 -14 73 -45 100 -69 l50 -44 -71 -1
c-39 0 -91 -3 -116 -6 l-45 -6 -7 48 c-4 27 -10 64 -13 83 -6 33 -5 34 23 27
16 -4 52 -18 79 -32z m1370 -56 l7 -68 -37 0 c-30 0 -35 3 -31 18 2 9 12 46
22 80 20 74 28 67 39 -30z m-388 -5 c-3 -10 -5 -4 -5 12 0 17 2 24 5 18 2 -7
2 -21 0 -30z m1091 -138 c0 -22 -3 -19 -9 15 -10 60 -9 108 2 55 4 -22 8 -53
7 -70z m-1101 -62 c-2 -21 -4 -4 -4 37 0 41 2 58 4 38 2 -21 2 -55 0 -75z
m1110 -35 c-2 -13 -4 -3 -4 22 0 25 2 35 4 23 2 -13 2 -33 0 -45z m-499 -68
l-2 -75 -5 75 c-4 43 -9 66 -12 55 -6 -17 -7 -16 -8 6 0 14 2 29 6 32 14 15
23 -21 21 -93z m-1532 30 c74 -38 169 -105 196 -137 11 -14 7 -15 -42 -8 -30
5 -98 9 -150 9 l-95 1 -10 88 c-13 105 -12 106 101 47z m1071 18 c-3 -8 -6 -5
-6 6 -1 11 2 17 5 13 3 -3 4 -12 1 -19z m982 -177 c2 -95 -6 -50 -12 64 -4 78
-3 93 3 50 4 -33 8 -84 9 -114z m-392 -18 c-2 -21 -4 -4 -4 37 0 41 2 58 4 38
2 -21 2 -55 0 -75z"/>
<path d="M2565 3256 c-30 -13 -85 -69 -85 -86 0 -12 29 -40 42 -40 6 0 0 9
-13 19 -19 16 -22 22 -11 32 10 11 12 10 12 -4 0 -20 22 -32 71 -40 27 -4 47
1 84 21 27 15 50 32 52 38 2 7 -6 24 -19 39 -28 32 -88 42 -133 21z"/>
<path d="M2553 3123 c9 -2 23 -2 30 0 6 3 -1 5 -18 5 -16 0 -22 -2 -12 -5z"/>
<path d="M2125 2755 c3 -38 5 -97 6 -130 0 -42 3 -54 9 -40 4 12 4 63 -1 115
-11 116 -20 151 -14 55z"/>
<path d="M1746 2234 c-38 -38 -5 -75 65 -72 44 2 49 5 49 25 0 21 -5 23 -42
22 -40 -1 -41 -2 -13 -9 26 -6 28 -8 11 -15 -22 -9 -51 6 -51 26 0 10 12 13
43 12 42 -2 56 9 26 21 -29 11 -72 6 -88 -10z"/>
<path d="M1888 2239 c-22 -12 -23 -42 -2 -63 18 -18 66 -21 95 -6 21 12 25 50
7 68 -15 15 -76 15 -100 1z m77 -34 c0 -25 -37 -32 -54 -11 -18 21 -4 38 27
34 19 -2 27 -9 27 -23z"/>
<path d="M2010 2205 c0 -38 3 -45 20 -45 14 0 20 7 21 23 l0 22 11 -22 c15
-31 42 -29 58 5 l14 27 4 -27 c6 -48 32 -34 32 17 0 41 -2 45 -25 45 -17 0
-29 -8 -37 -25 -6 -14 -14 -25 -18 -25 -4 0 -12 11 -18 25 -8 17 -20 25 -37
25 -23 0 -25 -4 -25 -45z"/>
<path d="M2180 2205 l0 -45 100 0 c60 0 100 4 100 10 0 6 -12 10 -27 10 l-28
1 28 24 c15 13 27 29 27 35 0 6 -37 10 -100 10 l-100 0 0 -45z m128 -1 c-32
-24 -98 -33 -98 -14 0 6 14 10 30 10 41 0 38 20 -2 21 l-33 2 35 6 c19 3 50 4
68 2 l33 -3 -33 -24z"/>
<path d="M2420 2245 c0 -3 9 -24 20 -45 13 -26 27 -40 40 -40 13 0 27 14 40
40 24 47 24 50 5 50 -9 0 -21 -11 -27 -25 -6 -14 -14 -25 -18 -25 -4 0 -12 11
-18 25 -10 21 -42 36 -42 20z"/>
<path d="M2550 2205 l0 -45 50 0 c28 0 50 5 50 10 0 6 -16 10 -35 10 -19 0
-35 5 -35 10 0 6 14 10 30 10 40 0 38 18 -2 23 -32 4 -32 4 5 5 56 3 45 22
-13 22 l-50 0 0 -45z"/>
<path d="M2660 2205 l0 -45 59 0 c33 0 63 5 66 10 8 12 55 13 55 1 0 -9 104
-13 133 -5 9 3 17 14 17 24 0 14 -10 21 -35 26 -19 3 -32 10 -29 15 3 5 16 6
30 3 14 -4 24 -2 24 5 0 15 -73 14 -88 -1 -16 -16 3 -38 34 -38 12 0 26 -5 30
-12 5 -8 -3 -9 -28 -5 -20 3 -40 1 -45 -4 -6 -6 -16 5 -28 31 -24 54 -55 55
-79 2 -16 -35 -20 -38 -52 -34 -31 4 -34 7 -34 38 0 24 -5 34 -15 34 -11 0
-15 -12 -15 -45z m170 -7 c0 -5 -7 -8 -15 -8 -15 0 -20 21 -8 33 7 7 23 -11
23 -25z"/>
<path d="M3018 2239 c-22 -12 -23 -42 -2 -63 19 -20 74 -21 99 -3 25 19 3 32
-25 15 -23 -15 -55 -1 -55 23 0 10 12 13 44 11 39 -2 42 -1 31 13 -14 17 -66
20 -92 4z"/>
<path d="M3152 2238 c-18 -18 -14 -56 7 -68 44 -23 111 -1 111 38 0 35 -89 59
-118 30z m81 -22 c7 -17 -11 -36 -34 -36 -22 0 -33 16 -25 35 7 19 52 19 59 1z"/>
<path d="M2286 2019 c-32 -25 -56 -69 -56 -104 0 -35 24 -79 56 -104 25 -20
39 -21 214 -21 175 0 189 1 214 21 73 57 73 151 0 208 -25 20 -39 21 -214 21
-175 0 -189 -1 -214 -21z m423 -15 c60 -50 58 -133 -4 -182 -26 -21 -38 -22
-205 -22 -167 0 -179 1 -205 22 -62 49 -64 132 -4 182 30 26 32 26 209 26 177
0 179 0 209 -26z"/>
<path d="M2395 1950 c-3 -6 1 -7 9 -4 20 8 21 -10 1 -26 -23 -19 -18 -30 13
-29 25 2 25 2 3 6 l-23 5 21 15 c17 12 20 18 10 29 -13 16 -25 18 -34 4z"/>
<path d="M2454 1946 c-9 -23 0 -51 16 -51 10 0 15 10 15 29 0 32 -21 47 -31
22z m26 -21 c0 -14 -4 -25 -10 -25 -5 0 -10 11 -10 25 0 14 5 25 10 25 6 0 10
-11 10 -25z"/>
<path d="M2510 1949 c-13 -9 -12 -10 2 -5 25 8 32 -11 8 -24 -28 -15 -25 -30
8 -29 23 0 24 2 7 8 -18 7 -18 8 -1 18 12 7 17 17 13 27 -7 19 -16 20 -37 5z"/>
<path d="M2564 1949 c-5 -9 -2 -10 9 -6 9 3 19 2 22 -3 3 -4 -1 -11 -7 -13
-10 -4 -10 -6 0 -6 6 -1 12 -6 12 -12 0 -7 -9 -9 -21 -6 -16 4 -19 3 -11 -5
18 -18 41 -1 39 29 -3 29 -29 43 -43 22z"/>
</g>
</svg>
